<svg width="35" height="36" viewBox="0 0 35 36" fill="none" xmlns="http://www.w3.org/2000/svg">
<path d="M21.6739 6.5024C20.843 6.3489 20.0799 6.87915 19.9217 7.69023C19.7635 8.5013 20.2954 9.29318 21.1037 9.45191C23.5373 9.92634 25.4164 11.8101 25.8927 14.2521V14.2538C26.0283 14.9567 26.6471 15.4678 27.3598 15.4678C27.4554 15.4678 27.551 15.4591 27.6484 15.4416C28.4567 15.2794 28.9886 14.4893 28.8304 13.6765C28.1194 10.0293 25.3121 7.2123 21.6739 6.5024Z" fill="black"/>
<path d="M21.5624 0.423265C21.173 0.367449 20.7819 0.482569 20.4708 0.730252C20.1509 0.981422 19.951 1.34423 19.9076 1.75063C19.8154 2.57217 20.4082 3.31522 21.2287 3.40766C26.8868 4.03908 31.2847 8.44678 31.9209 14.1225C32.006 14.883 32.644 15.4569 33.4054 15.4569C33.4627 15.4569 33.5184 15.4534 33.5757 15.4464C33.9738 15.4028 34.3284 15.2057 34.5787 14.8918C34.8273 14.5778 34.9403 14.1871 34.8951 13.7877C34.1024 6.70603 28.6216 1.20992 21.5624 0.423265Z" fill="black"/>
<path fill-rule="evenodd" clip-rule="evenodd" d="M15.7644 19.5579C22.7271 26.5187 24.3066 18.4659 28.7398 22.896C33.0137 27.1687 35.4702 28.0248 30.0552 33.4383C29.3769 33.9834 25.0673 40.5414 9.92214 25.4004C-5.22494 10.2576 1.3293 5.94361 1.87455 5.26551C7.30269 -0.16299 8.14399 2.30775 12.4179 6.58049C16.8511 11.0125 8.80166 12.5972 15.7644 19.5579Z" fill="black"/>
</svg>
