<svg width="35" height="33" viewBox="0 0 35 33" fill="none" xmlns="http://www.w3.org/2000/svg">
<path d="M34.9055 23.2165C34.9055 28.0858 30.9961 32.0301 26.1268 32.0476H26.1093H8.81364C3.96178 32.0476 0 28.1207 0 23.2514V23.2339C0 23.2339 0.0104717 15.5093 0.0244339 11.6244C0.0261791 10.8948 0.863911 10.4864 1.43462 10.9402C5.58139 14.2301 12.9971 20.2286 13.0896 20.3071C14.3287 21.3002 15.8995 21.8604 17.5051 21.8604C19.1108 21.8604 20.6815 21.3002 21.9207 20.2879C22.0132 20.2268 29.263 14.4081 33.4726 11.0641C34.0451 10.6086 34.8863 11.017 34.8881 11.7448C34.9055 15.6001 34.9055 23.2165 34.9055 23.2165Z" fill="black"/>
<path d="M33.9908 5.29577C32.4794 2.44748 29.5054 0.628906 26.2313 0.628906H8.81343C5.5393 0.628906 2.56535 2.44748 1.05394 5.29577C0.715356 5.9328 0.875921 6.7269 1.43964 7.17718L14.3983 17.5424C15.3059 18.2754 16.4054 18.6401 17.5049 18.6401C17.5119 18.6401 17.5171 18.6401 17.5224 18.6401C17.5276 18.6401 17.5346 18.6401 17.5398 18.6401C18.6393 18.6401 19.7389 18.2754 20.6464 17.5424L33.6051 7.17718C34.1688 6.7269 34.3294 5.9328 33.9908 5.29577Z" fill="black"/>
</svg>
