<svg width="35" height="51" viewBox="0 0 35 51" fill="none" xmlns="http://www.w3.org/2000/svg">
<path d="M8.80522 3.32499C14.2526 0.159812 20.9484 0.215134 26.3446 3.4699C31.6879 6.79096 34.9353 12.7181 34.9053 19.094C34.7807 25.4281 31.2985 31.3821 26.9457 35.9849C24.4334 38.6534 21.623 41.0131 18.5718 43.0157C18.2576 43.1974 17.9134 43.3191 17.5562 43.3746C17.2124 43.36 16.8776 43.2584 16.582 43.079C11.9238 40.07 7.83712 36.2291 4.5186 31.741C1.74175 27.9947 0.164142 23.4685 0 18.7773L0.0124319 18.0948C0.239158 11.9713 3.55237 6.37712 8.80522 3.32499ZM19.7148 13.5423C17.5003 12.601 14.9471 13.1124 13.2474 14.8378C11.5477 16.5631 11.0367 19.162 11.9531 21.421C12.8694 23.68 15.0323 25.1536 17.4318 25.1536C19.0038 25.1649 20.5149 24.5352 21.6285 23.4049C22.742 22.2746 23.3655 20.7375 23.3599 19.1362C23.3683 16.692 21.9293 14.4836 19.7148 13.5423Z" fill="black"/>
<path d="M17.4523 50.8536C24.3372 50.8536 29.9186 49.7373 29.9186 48.3603C29.9186 46.9833 24.3372 45.8671 17.4523 45.8671C10.5674 45.8671 4.98605 46.9833 4.98605 48.3603C4.98605 49.7373 10.5674 50.8536 17.4523 50.8536Z" fill="black"/>
</svg>
